<svg version="1.1" id="Layer_1" xmlns="http://www.w3.org/2000/svg" xmlns:xlink="http://www.w3.org/1999/xlink" x="0px" y="0px"
	 width="100%" viewBox="0 0 3342 2846" enable-background="new 0 0 3342 2846" xml:space="preserve">
<path fill="#0E1726" opacity="1.000000" stroke="none" 
	d="
M2316.000000,2848.000000 
	C1544.000122,2848.000000 773.000305,2848.000000 2.000310,2848.000000 
	C2.000207,1899.333618 2.000207,950.667297 2.000103,2.000692 
	C1115.999512,2.000462 2229.999023,2.000462 3343.999023,2.000231 
	C3343.999268,950.666016 3343.999268,1899.332031 3343.999512,2847.999023 
	C3001.666748,2848.000000 2659.333252,2848.000000 2316.000000,2848.000000 
M1072.682983,1209.025513 
	C1071.801147,1209.345337 1070.919189,1209.665039 1068.577271,1209.788086 
	C1066.405151,1208.501709 1063.422852,1207.741577 1062.190918,1205.844604 
	C1053.651611,1192.695557 1041.513916,1184.539917 1027.731689,1177.450562 
	C1011.706360,1169.207275 995.284363,1169.237549 979.081055,1173.214844 
	C942.156128,1182.278931 919.192932,1218.228271 924.109863,1257.041382 
	C928.625488,1292.686035 961.348145,1321.409790 998.144165,1321.463867 
	C1020.170410,1321.496216 1039.105835,1313.464233 1053.988770,1297.025513 
	C1057.466919,1293.183960 1060.928833,1291.136353 1066.364624,1292.605591 
	C1066.364624,1292.605591 1066.961426,1292.865356 1066.961426,1292.865356 
	C1066.961426,1292.865356 1067.509521,1292.514893 1069.296265,1293.307495 
	C1095.530640,1293.373047 1121.764893,1293.438599 1149.843872,1293.861206 
	C1213.015747,1293.889893 1276.187744,1293.924194 1339.359619,1293.925049 
	C1341.672241,1293.925049 1343.984985,1293.598633 1347.815674,1293.803223 
	C1392.256958,1293.857178 1436.698120,1293.927612 1481.139404,1293.944458 
	C1486.765747,1293.946655 1492.392090,1293.666870 1499.861572,1293.861572 
	C1528.189697,1293.890137 1556.518188,1293.976929 1584.845825,1293.880005 
	C1588.781738,1293.866577 1592.714600,1292.945801 1597.237427,1293.125854 
	C1597.237427,1293.125854 1598.063477,1293.483276 1598.088013,1295.422485 
	C1598.088013,1312.072266 1598.088013,1328.722046 1598.088013,1345.516602 
	C1591.782349,1345.870483 1586.894165,1346.144653 1580.158325,1346.069336 
	C1522.423950,1346.043335 1464.689453,1346.013672 1406.955078,1346.009399 
	C1405.307373,1346.009277 1403.659546,1346.276367 1400.164307,1346.064575 
	C1319.092896,1346.032593 1238.021484,1345.998169 1156.950073,1345.986938 
	C1155.300415,1345.986694 1153.650879,1346.258423 1150.153687,1346.059204 
	C1074.750977,1346.024414 999.348206,1345.986328 923.945435,1345.973389 
	C921.964172,1345.973022 919.982849,1346.247681 916.154480,1346.046509 
	C877.823242,1346.014160 839.492004,1345.979248 801.160767,1345.953247 
	C797.161377,1345.950562 793.148926,1345.799683 789.164734,1346.058716 
	C763.424805,1347.731934 746.216309,1373.472778 754.508789,1397.793579 
	C760.000916,1413.901245 774.666138,1424.106323 793.039001,1424.128052 
	C855.369507,1424.201538 917.700134,1424.148071 980.030762,1424.119019 
	C982.019836,1424.118164 984.008850,1423.856079 987.843933,1424.067139 
	C1062.912842,1424.087402 1137.981812,1424.110352 1213.050781,1424.110718 
	C1214.700928,1424.110718 1216.351074,1423.852173 1219.847534,1424.060913 
	C1300.585205,1424.083008 1381.322876,1424.108276 1462.060547,1424.109253 
	C1464.042847,1424.109253 1466.025146,1423.840942 1469.853638,1424.040039 
	C1512.283936,1424.040039 1554.714233,1424.040039 1597.374512,1424.040039 
	C1597.374512,1442.051880 1597.374512,1458.766357 1597.374512,1476.173706 
	C1593.040649,1476.173706 1589.431274,1476.149048 1585.822266,1476.177734 
	C1567.886597,1476.320435 1549.951050,1476.477173 1530.170044,1476.263794 
	C1447.368896,1476.230469 1364.567627,1476.192383 1281.766479,1476.186279 
	C1279.118286,1476.186035 1276.470215,1476.515991 1272.278809,1476.320190 
	C1198.835449,1476.264648 1125.392212,1476.206665 1051.948853,1476.172485 
	C1050.632568,1476.171875 1049.316040,1476.454468 1046.154053,1476.254395 
	C988.080627,1476.223145 930.007141,1476.187256 871.933716,1476.180420 
	C869.955505,1476.180176 867.977356,1476.469727 864.155518,1476.264526 
	C823.490784,1476.230469 782.826050,1476.158081 742.161499,1476.228760 
	C738.578857,1476.234985 734.997742,1477.178101 730.979004,1477.327148 
	C730.545227,1477.354004 730.262207,1477.574829 728.788147,1477.579102 
	C727.081482,1475.181152 725.200684,1472.886841 723.698120,1470.367188 
	C716.977661,1459.097778 708.790344,1449.058228 698.174438,1441.313232 
	C669.378845,1420.305420 638.117432,1414.167969 602.581848,1426.453369 
	C543.787170,1448.235107 519.026855,1517.119873 550.547668,1570.370239 
	C572.215210,1606.974731 605.700317,1624.192139 647.925293,1619.530884 
	C687.189941,1615.196777 715.429810,1594.273438 730.540649,1555.210205 
	C733.475708,1554.901001 736.410522,1554.324097 739.345764,1554.321899 
	C800.911560,1554.277100 862.477356,1554.303589 924.043152,1554.287109 
	C927.360718,1554.286255 930.678101,1554.031128 935.843872,1554.240234 
	C968.736145,1554.264404 1001.628601,1554.250366 1034.520630,1554.364624 
	C1038.333496,1554.377808 1042.635986,1553.008179 1045.061157,1558.535400 
	C1045.017578,1559.533203 1044.935913,1560.530884 1044.935791,1561.528687 
	C1044.903687,1722.050171 1044.871094,1882.571533 1044.887939,2043.093018 
	C1044.888306,2047.070679 1045.208740,2051.081055 1045.770142,2055.020752 
	C1048.735840,2075.832275 1067.675293,2091.984619 1088.206909,2091.347168 
	C1110.188843,2090.664795 1129.303833,2073.466797 1129.825195,2051.878662 
	C1130.548096,2021.937744 1129.815308,1991.961792 1130.056030,1960.154785 
	C1130.071655,1889.753784 1130.090454,1819.352661 1130.085693,1748.951660 
	C1130.085571,1747.302246 1129.823608,1745.652954 1130.039062,1742.158081 
	C1130.056396,1682.422363 1130.077271,1622.686768 1130.074219,1562.951050 
	C1130.074097,1561.302002 1129.821411,1559.652832 1130.361328,1556.475830 
	C1132.739258,1555.762695 1135.114380,1554.440430 1137.495728,1554.428955 
	C1166.064453,1554.290405 1194.634277,1554.330444 1223.203613,1554.394287 
	C1224.753418,1554.397827 1226.302002,1555.024048 1228.437866,1555.487671 
	C1228.437866,1559.417847 1228.438232,1563.043701 1228.437744,1566.669678 
	C1228.431641,1622.479980 1228.414062,1678.290283 1228.443237,1734.100586 
	C1228.445312,1738.068970 1228.790771,1742.037231 1228.571411,1747.838745 
	C1228.535889,1748.835815 1228.469482,1749.832764 1228.469238,1750.829834 
	C1228.442261,1869.240601 1228.416870,1987.651245 1228.420288,2106.062012 
	C1228.420410,2108.706299 1228.752563,2111.350830 1228.530151,2115.831299 
	C1228.456421,2146.788818 1228.152466,2177.748535 1228.470825,2208.701904 
	C1228.550293,2216.433838 1226.310303,2220.909180 1219.619385,2225.504639 
	C1186.909302,2247.969482 1172.974976,2279.877441 1178.812378,2318.776367 
	C1187.011475,2373.413574 1240.180420,2408.152832 1294.131104,2395.719971 
	C1343.329346,2384.382324 1375.254395,2333.798584 1364.419189,2284.339355 
	C1358.719849,2258.324463 1344.608154,2238.067627 1322.137085,2223.906250 
	C1317.271362,2220.839844 1315.291260,2217.593262 1315.563110,2211.928223 
	C1315.912842,2204.640869 1315.383423,2197.311523 1315.611450,2188.162842 
	C1315.633667,2068.428467 1315.657715,1948.694214 1315.660400,1828.959839 
	C1315.660400,1827.308350 1315.388550,1825.656982 1315.624878,1822.168091 
	C1315.678345,1733.115112 1315.731812,1644.062134 1315.786011,1553.921387 
	C1325.460205,1553.921387 1333.728638,1553.921387 1343.847778,1554.250488 
	C1367.805420,1554.202148 1391.763062,1554.153931 1416.366089,1554.932739 
	C1416.651855,1555.134155 1416.937744,1555.335571 1416.740967,1557.411377 
	C1416.743408,1587.607300 1416.745850,1617.803223 1416.383301,1649.841064 
	C1416.349609,1761.581421 1416.313843,1873.321777 1416.302002,1985.062134 
	C1416.301758,1986.711426 1416.596313,1988.360596 1416.401611,1991.853027 
	C1416.365967,2097.254150 1416.327759,2202.655518 1416.314331,2308.056641 
	C1416.314087,2310.038086 1416.609985,2312.019775 1416.406616,2315.843750 
	C1416.370483,2405.083008 1416.325073,2494.322021 1416.338379,2583.561279 
	C1416.338867,2586.513672 1416.936157,2589.466064 1416.947632,2593.038086 
	C1417.031860,2593.543213 1417.313965,2593.885010 1417.763062,2595.583496 
	C1418.682251,2598.405518 1419.294312,2601.375244 1420.570801,2604.025146 
	C1428.362061,2620.200195 1446.119873,2628.991455 1464.497559,2625.942383 
	C1480.979980,2623.208008 1493.986816,2609.411621 1496.818604,2591.789795 
	C1497.167236,2591.302979 1497.121338,2590.856934 1497.330322,2588.624512 
	C1497.408569,2587.296631 1497.555420,2585.968750 1497.555420,2584.640869 
	C1497.554565,2520.071289 1497.546631,2455.501709 1497.506104,2390.932129 
	C1497.504639,2388.619385 1497.167114,2386.306396 1497.428101,2382.172363 
	C1497.451782,2277.088135 1497.477905,2172.003662 1497.475708,2066.919434 
	C1497.475708,2065.274902 1497.129028,2063.630127 1497.413574,2060.172119 
	C1497.455688,2059.175293 1497.534546,2058.178711 1497.534546,2057.181885 
	C1497.529175,1947.415161 1497.522583,1837.648560 1497.480957,1727.881836 
	C1497.479980,1725.243286 1497.084961,1722.605103 1497.357178,1718.160522 
	C1497.396240,1667.113770 1497.452271,1616.066895 1497.424927,1565.020142 
	C1497.423584,1562.427734 1496.704224,1559.835449 1497.059082,1556.265503 
	C1497.431396,1555.536499 1497.803833,1554.807495 1500.020142,1554.275635 
	C1532.452637,1554.275635 1564.885132,1554.275635 1598.090332,1554.275635 
	C1598.090332,1559.309570 1598.090332,1562.916382 1598.090332,1566.523193 
	C1598.091187,1614.037476 1598.082153,1661.551636 1598.112427,1709.065918 
	C1598.114746,1712.708862 1598.393311,1716.351562 1598.187500,1721.840210 
	C1598.152710,1778.579834 1598.113159,1835.319336 1598.101929,1892.058960 
	C1598.101562,1894.037598 1598.382690,1896.016357 1598.178955,1899.841675 
	C1598.142700,1986.582886 1598.103638,2073.324219 1598.089355,2160.065430 
	C1598.089111,2162.047119 1598.371948,2164.028809 1598.169312,2167.852783 
	C1598.132080,2266.588867 1598.092041,2365.324707 1598.076538,2464.060791 
	C1598.076172,2466.042969 1598.360474,2468.024902 1598.162720,2471.852051 
	C1598.124634,2564.450684 1598.085449,2657.049316 1598.056152,2749.647949 
	C1598.055420,2751.644775 1598.050537,2753.653320 1598.244507,2755.636963 
	C1600.679077,2780.526611 1625.270996,2796.954834 1648.949463,2789.537598 
	C1665.703613,2784.289795 1676.229858,2769.576904 1676.244141,2750.818848 
	C1676.296387,2681.869141 1676.247437,2612.919434 1676.214111,2543.969727 
	C1676.213135,2541.981445 1675.959595,2539.993164 1676.172974,2536.157471 
	C1676.182617,2437.423828 1676.194580,2338.689941 1676.184448,2239.956299 
	C1676.184204,2237.972168 1675.926636,2235.988037 1676.137329,2232.156006 
	C1676.155396,2144.424072 1676.175415,2056.691895 1676.174194,1968.959961 
	C1676.174194,1967.308716 1675.919922,1965.657593 1676.250854,1962.336060 
	C1678.714478,1957.415283 1683.275513,1959.675171 1686.802368,1959.666992 
	C1757.888672,1959.502563 1828.975342,1959.539062 1900.062012,1959.492920 
	C1904.028198,1959.490356 1907.994019,1959.120239 1913.786987,1959.393433 
	C1952.398926,1959.438721 1991.010864,1959.489136 2029.622803,1959.526855 
	C2043.603394,1959.540405 2057.593018,1959.842163 2071.562744,1959.447632 
	C2094.078613,1958.811646 2111.289307,1942.071899 2112.819092,1919.880981 
	C2114.198242,1899.880737 2099.183838,1880.913086 2078.554932,1877.020142 
	C2074.024414,1876.165283 2069.284424,1876.201660 2064.640625,1876.198486 
	C1992.740234,1876.149292 1920.839966,1876.155762 1848.939575,1876.178833 
	C1845.956299,1876.179810 1842.973022,1876.466553 1838.148438,1876.265625 
	C1784.440186,1876.265625 1730.731812,1876.265625 1676.779053,1876.265625 
	C1676.779053,1860.651733 1676.779053,1846.528076 1676.779053,1831.246704 
	C1688.238770,1831.246704 1699.123413,1831.246704 1711.845825,1831.616699 
	C1764.910522,1831.646118 1817.975098,1831.679443 1871.039795,1831.686157 
	C1872.686035,1831.686401 1874.332397,1831.408569 1877.823730,1831.629639 
	C1952.909546,1831.658936 2027.995239,1831.691040 2103.081055,1831.698120 
	C2104.729248,1831.698242 2106.377441,1831.408936 2109.863525,1831.611084 
	C2138.511719,1831.639038 2167.161865,1831.847046 2195.806641,1831.545776 
	C2201.657959,1831.484253 2206.187256,1832.189575 2208.991455,1837.798584 
	C2209.719727,1839.254761 2210.997070,1840.446655 2212.072998,1841.716919 
	C2233.809082,1867.376221 2271.466309,1874.947021 2302.137451,1859.896118 
	C2330.976562,1845.743896 2350.655518,1813.663452 2342.705566,1776.589844 
	C2336.279785,1746.624634 2317.363525,1726.843262 2287.804932,1719.085571 
	C2258.134033,1711.298462 2232.708008,1720.251099 2211.867188,1742.683960 
	C2209.771240,1744.940063 2206.644043,1746.238403 2203.256348,1747.324951 
	C2202.329102,1747.327026 2201.401611,1747.329102 2198.640625,1746.700317 
	C2145.086182,1746.636719 2091.531738,1746.569092 2037.977173,1746.533569 
	C2036.666748,1746.532715 2035.356201,1746.891479 2032.218506,1746.606567 
	C1956.438965,1746.563599 1880.659302,1746.516724 1804.879761,1746.502930 
	C1803.239258,1746.502686 1801.598877,1746.880493 1798.146851,1746.623413 
	C1761.116821,1746.575317 1724.086914,1746.504028 1687.056885,1746.529541 
	C1684.470947,1746.531250 1681.885498,1747.251587 1678.252441,1747.034180 
	C1677.498657,1746.749634 1676.744873,1746.465088 1676.154053,1744.289062 
	C1676.154053,1726.439087 1676.154053,1708.588989 1676.154053,1689.373047 
	C1696.274780,1689.373047 1715.147095,1689.373047 1735.858765,1689.732422 
	C1822.591675,1689.762329 1909.324707,1689.795410 1996.057617,1689.803101 
	C1998.039062,1689.803345 2000.020508,1689.518066 2003.844482,1689.727417 
	C2095.252441,1689.764282 2186.660645,1689.803955 2278.068604,1689.818604 
	C2280.050293,1689.818848 2282.032227,1689.531860 2285.854492,1689.737793 
	C2354.773926,1689.780762 2423.693115,1689.824585 2492.612549,1689.861328 
	C2494.276367,1689.862183 2495.948242,1689.874390 2497.602783,1689.727051 
	C2513.280273,1688.330811 2527.073242,1677.599731 2531.657227,1662.866699 
	C2536.716064,1646.607422 2532.582520,1632.594116 2520.191406,1621.179443 
	C2512.799072,1614.369507 2503.827148,1611.595703 2493.648926,1611.613403 
	C2403.753662,1611.769897 2313.858154,1611.746582 2223.962646,1611.797852 
	C2221.975342,1611.799072 2219.988281,1612.054810 2216.152588,1611.851196 
	C2124.419434,1611.844971 2032.686401,1611.836426 1940.953369,1611.849487 
	C1939.302246,1611.849731 1937.651245,1612.108765 1934.152710,1611.903809 
	C1848.441650,1611.903809 1762.730469,1611.903809 1676.859619,1611.903809 
	C1676.859619,1592.012451 1676.859619,1573.585083 1676.859619,1554.313354 
	C1681.135132,1554.313354 1684.729736,1554.313232 1688.324341,1554.313232 
	C1739.234253,1554.313477 1790.144043,1554.322266 1841.053955,1554.296387 
	C1844.703735,1554.294434 1848.353394,1554.039795 1853.852539,1554.235718 
	C1941.251465,1554.261475 2028.650391,1554.289795 2116.049316,1554.295654 
	C2118.032959,1554.295776 2120.016357,1554.040894 2123.849609,1554.239746 
	C2205.917725,1554.267334 2287.985840,1554.297974 2370.053955,1554.305054 
	C2372.036621,1554.305176 2374.019043,1554.041992 2377.852295,1554.228882 
	C2440.938477,1554.228882 2504.024414,1554.228882 2566.905273,1554.228882 
	C2574.542236,1574.097290 2586.168457,1590.098755 2603.041260,1601.763184 
	C2629.042236,1619.738647 2657.346191,1625.501465 2689.624023,1616.202759 
	C2735.809814,1603.855957 2767.833740,1555.068481 2760.476562,1506.186523 
	C2751.142090,1444.167480 2688.620117,1405.283325 2629.282715,1425.453369 
	C2604.966064,1433.718994 2586.701416,1449.398438 2573.721680,1471.426758 
	C2571.958740,1474.419189 2571.302246,1478.780518 2565.716797,1477.342407 
	C2565.264893,1476.968140 2564.806885,1476.960571 2562.810547,1476.563477 
	C2560.546631,1476.562134 2558.282471,1476.560669 2554.174805,1476.193237 
	C2473.774902,1476.179077 2393.375244,1476.162231 2312.975342,1476.168945 
	C2311.325684,1476.169067 2309.676270,1476.439087 2306.182861,1476.212158 
	C2283.078857,1476.212158 2259.974854,1476.212158 2236.314941,1476.212158 
	C2236.114258,1471.842407 2235.849854,1468.612915 2235.837891,1465.382568 
	C2235.790527,1452.454346 2235.877686,1439.525391 2235.810059,1426.597290 
	C2235.704346,1406.388428 2235.512939,1386.180176 2235.708984,1364.132080 
	C2235.757812,1239.987671 2235.811279,1115.843384 2235.827637,991.699036 
	C2235.827881,989.055969 2235.403076,986.412903 2235.409180,982.756531 
	C2234.960449,981.844604 2234.511719,980.932739 2234.128662,978.521362 
	C2232.935791,975.446228 2232.062012,972.197449 2230.497559,969.324585 
	C2221.414551,952.644531 2203.279297,944.404175 2184.009521,948.117432 
	C2170.017822,950.813599 2153.103271,964.584045 2151.247070,982.724670 
	C2151.141846,983.727600 2151.036621,984.730530 2150.437744,987.580811 
	C2150.411865,1087.071167 2150.383789,1186.561646 2150.378174,1286.052002 
	C2150.378174,1287.370239 2150.659912,1288.688599 2150.419922,1291.840576 
	C2150.419922,1352.947510 2150.419922,1414.054565 2150.419922,1476.184570 
	C2117.506348,1475.954956 2085.808838,1476.552368 2053.564697,1475.790405 
	C2053.564697,1471.296509 2053.563477,1467.992188 2053.565186,1464.687744 
	C2053.588379,1414.112061 2053.618652,1363.536377 2053.618896,1312.960693 
	C2053.618896,1309.978638 2053.376221,1306.996704 2053.614990,1302.170410 
	C2053.648193,1250.747070 2053.686768,1199.323853 2053.694336,1147.900513 
	C2053.694824,1145.923340 2053.396729,1143.946289 2053.595459,1140.132202 
	C2053.629395,1059.394653 2053.666504,978.657166 2053.677490,897.919617 
	C2053.677734,895.939331 2053.383301,893.959045 2053.593262,890.142212 
	C2053.625977,867.485901 2053.907471,844.825623 2053.547363,822.175598 
	C2053.431885,814.924316 2055.424316,810.430664 2061.489258,805.670776 
	C2092.031738,781.700989 2104.140625,749.690613 2096.530029,711.866699 
	C2086.005371,659.560608 2037.510498,628.172852 1985.088745,638.020752 
	C1927.866943,648.770264 1893.503296,712.969421 1916.759521,767.326172 
	C1925.220337,787.310364 1938.856689,802.882507 1957.857544,813.191101 
	C1964.313477,816.693665 1966.504761,820.431519 1966.477295,827.725037 
	C1966.192383,903.162170 1966.301147,978.600830 1966.331299,1054.039062 
	C1966.332886,1058.015015 1966.612305,1061.990967 1966.382202,1067.811401 
	C1966.353638,1119.565918 1966.320679,1171.320557 1966.316040,1223.075073 
	C1966.315796,1224.721069 1966.603516,1226.367065 1966.390015,1229.850708 
	C1966.359985,1284.585693 1966.324829,1339.320679 1966.319580,1394.055664 
	C1966.319336,1396.033081 1966.612915,1398.010376 1966.400024,1401.830933 
	C1966.400024,1426.352173 1966.400024,1450.873535 1966.400024,1475.431396 
	C1928.845703,1475.431396 1892.751099,1475.431396 1855.965088,1475.431396 
	C1855.965088,1470.739868 1855.964233,1466.790039 1855.965088,1462.840332 
	C1855.981689,1386.204468 1856.004517,1309.568481 1855.997070,1232.932617 
	C1855.996704,1229.278931 1855.731079,1225.625122 1855.936401,1220.131104 
	C1855.989502,1088.963745 1856.045898,957.796326 1856.070190,826.628906 
	C1856.070557,824.320129 1855.685059,822.011292 1855.823730,818.186890 
	C1855.767700,810.113586 1855.711548,802.040283 1856.015991,792.406738 
	C1855.895996,790.286682 1855.776001,788.166687 1855.986938,784.192078 
	C1855.882324,766.111389 1855.777710,748.030762 1856.035156,728.112183 
	C1855.917480,712.098328 1855.799683,696.084473 1855.994263,678.706238 
	C1855.891235,677.784729 1855.788330,676.863281 1856.049316,674.106018 
	C1856.087524,619.745972 1856.129272,565.385925 1856.145752,511.025848 
	C1856.146240,509.380249 1855.878784,507.734589 1856.064209,504.228119 
	C1856.089355,488.614655 1856.327393,472.997009 1856.020264,457.390076 
	C1855.917603,452.167267 1855.168091,446.707886 1853.432495,441.811005 
	C1847.019653,423.718567 1828.473755,413.220947 1808.886475,416.022217 
	C1791.313232,418.535431 1777.039917,434.043518 1775.072998,453.294495 
	C1774.918091,458.612885 1774.626465,463.931274 1774.628174,469.249634 
	C1774.730225,799.856262 1774.857300,1130.462891 1774.967407,1461.069458 
	C1774.969116,1466.064453 1774.783447,1471.059326 1772.726562,1476.154053 
	C1756.825317,1476.161621 1740.924072,1476.193726 1725.022827,1476.169800 
	C1708.948364,1476.145630 1692.873779,1476.065918 1675.749756,1476.006958 
	C1675.749756,1463.081299 1675.749756,1451.541260 1676.094238,1438.153931 
	C1676.122559,1366.418091 1676.153687,1294.682129 1676.161499,1222.946289 
	C1676.161743,1221.296753 1675.900269,1219.647095 1676.098633,1216.149170 
	C1676.157837,1105.084595 1676.218872,994.020020 1676.259155,882.955444 
	C1676.259766,881.303406 1676.005127,879.651306 1676.197876,876.148621 
	C1676.236816,780.748901 1676.278442,685.349121 1676.297363,589.949402 
	C1676.297852,587.965759 1676.037109,585.982178 1676.232666,582.149292 
	C1676.232666,538.392212 1676.232666,494.635193 1676.232666,451.131470 
	C1682.077759,448.560883 1686.989502,446.562195 1691.761719,444.272827 
	C1708.067383,436.450928 1722.811035,426.551270 1735.166992,411.380402 
	C1766.580322,373.485809 1774.813354,330.603363 1759.470093,284.321747 
	C1739.253296,223.339874 1677.029053,187.187256 1613.610352,198.579880 
	C1591.382446,202.572937 1571.041748,211.350021 1552.867188,227.244614 
	C1520.830688,254.927704 1504.391602,290.318085 1506.912476,332.232880 
	C1510.473633,391.446075 1543.114624,430.464355 1598.448242,451.714874 
	C1598.448242,474.046051 1598.448242,496.004822 1598.088867,519.815186 
	C1598.081299,615.214600 1598.071045,710.614014 1598.084106,806.013428 
	C1598.084473,807.996460 1598.355835,809.979431 1598.135864,813.809326 
	C1598.135864,901.746521 1598.135864,989.683716 1598.135864,1078.760620 
	C1576.435791,1078.760620 1556.214844,1078.760620 1534.156372,1078.388794 
	C1430.244019,1078.358765 1326.331787,1078.327759 1222.419434,1078.306885 
	C1220.422607,1078.306519 1218.414307,1078.311523 1216.430786,1078.508179 
	C1197.765869,1080.360474 1182.756348,1093.840942 1178.940674,1112.126343 
	C1175.408569,1129.051758 1183.887695,1147.070923 1199.671875,1156.119019 
	C1207.114380,1160.385376 1215.186035,1161.572021 1223.686646,1161.566772 
	C1344.252319,1161.492432 1464.817871,1161.519897 1585.383545,1161.522705 
	C1589.285156,1161.522827 1593.186646,1161.522583 1597.568115,1161.522583 
	C1597.568115,1178.165649 1597.568115,1193.662354 1597.568115,1209.335938 
	C1595.567505,1209.545776 1593.926392,1209.718018 1591.803833,1209.383911 
	C1591.317261,1209.072876 1590.910767,1209.155029 1588.849243,1208.983521 
	C1587.025024,1209.138550 1585.200928,1209.293579 1581.777588,1208.846924 
	C1576.070190,1209.045776 1570.362915,1209.244629 1562.774536,1208.904419 
	C1535.925659,1208.834106 1509.076782,1208.729492 1482.227905,1208.728760 
	C1477.946167,1208.728638 1473.664307,1209.194824 1467.746216,1208.843750 
	C1460.714966,1209.043213 1453.683716,1209.242554 1444.803223,1208.907104 
	C1437.892090,1209.102173 1430.980957,1209.297363 1422.273926,1208.879028 
	C1373.786377,1208.817261 1325.298950,1208.747314 1276.811401,1208.728027 
	C1275.188354,1208.727295 1273.565186,1209.237061 1270.175903,1208.913208 
	C1206.250488,1208.848267 1142.325073,1208.777222 1078.399658,1208.752563 
	C1076.770264,1208.751831 1075.140503,1209.258545 1072.682983,1209.025513 
z"/>
<path fill="#1BABD3" opacity="1.000000" stroke="none" 
	d="
M1675.760742,1217.997559 
	C1675.900269,1219.647095 1676.161743,1221.296753 1676.161499,1222.946289 
	C1676.153687,1294.682129 1676.122559,1366.418091 1675.208984,1439.067627 
	C1671.816040,1438.586792 1668.833496,1437.670898 1666.872559,1435.725342 
	C1639.837158,1408.902954 1612.890869,1381.989746 1586.112549,1354.911133 
	C1584.020508,1352.795532 1583.341553,1349.282471 1582.005859,1346.418945 
	C1586.894165,1346.144653 1591.782349,1345.870483 1598.088013,1345.516602 
	C1598.088013,1328.722046 1598.088013,1312.072266 1597.959717,1294.246094 
	C1597.553711,1292.650513 1597.159546,1292.442261 1596.648804,1292.444946 
	C1592.714600,1292.945801 1588.781738,1293.866577 1584.845825,1293.880005 
	C1556.518188,1293.976929 1528.189697,1293.890137 1498.921753,1292.981812 
	C1497.527344,1286.330078 1493.685059,1282.657349 1489.909180,1278.890137 
	C1469.974487,1259.000610 1450.008301,1239.141602 1430.242554,1219.085327 
	C1427.630127,1216.434570 1426.100830,1212.716309 1424.069824,1209.492554 
	C1430.980957,1209.297363 1437.892090,1209.102173 1446.419922,1209.396362 
	C1455.151978,1209.738892 1462.267334,1209.592285 1469.382568,1209.445557 
	C1473.664307,1209.194824 1477.946167,1208.728638 1482.227905,1208.728760 
	C1509.076782,1208.729492 1535.925659,1208.834106 1564.383545,1209.390381 
	C1571.787231,1209.733765 1577.581909,1209.591064 1583.376709,1209.448486 
	C1585.200928,1209.293579 1587.025024,1209.138550 1589.989746,1209.393799 
	C1591.130127,1209.803955 1591.703735,1209.899902 1591.703735,1209.899902 
	C1591.703735,1209.899902 1592.285278,1209.890137 1592.285278,1209.890137 
	C1593.926392,1209.718018 1595.567505,1209.545776 1597.568115,1209.335938 
	C1597.568115,1193.662354 1597.568115,1178.165649 1597.568115,1161.522583 
	C1593.186646,1161.522583 1589.285156,1161.522827 1585.383545,1161.522705 
	C1464.817871,1161.519897 1344.252319,1161.492432 1223.686646,1161.566772 
	C1215.186035,1161.572021 1207.114380,1160.385376 1199.671875,1156.119019 
	C1183.887695,1147.070923 1175.408569,1129.051758 1178.940674,1112.126343 
	C1182.756348,1093.840942 1197.765869,1080.360474 1216.430786,1078.508179 
	C1218.414307,1078.311523 1220.422607,1078.306519 1222.419434,1078.306885 
	C1326.331787,1078.327759 1430.244019,1078.358765 1535.093994,1079.253174 
	C1537.535645,1082.592773 1538.619141,1085.486816 1540.605713,1087.481201 
	C1582.463623,1129.502563 1624.431030,1171.414551 1666.344604,1213.380493 
	C1669.000000,1216.039429 1671.583618,1218.570312 1675.760742,1217.997559 
z"/>
<path fill="#1CA4D5" opacity="1.000000" stroke="none" 
	d="
M1581.082031,1346.244141 
	C1583.341553,1349.282471 1584.020508,1352.795532 1586.112549,1354.911133 
	C1612.890869,1381.989746 1639.837158,1408.902954 1666.872559,1435.725342 
	C1668.833496,1437.670898 1671.816040,1438.586792 1675.036743,1439.991211 
	C1675.749756,1451.541260 1675.749756,1463.081299 1675.749756,1476.006958 
	C1692.873779,1476.065918 1708.948364,1476.145630 1725.022827,1476.169800 
	C1740.924072,1476.193726 1756.825317,1476.161621 1774.019287,1476.027100 
	C1775.312012,1475.900269 1775.931030,1475.696899 1776.617432,1475.847046 
	C1778.455444,1476.616455 1779.836792,1477.004883 1780.725098,1477.888672 
	C1803.484375,1500.535645 1826.249390,1523.178101 1848.802490,1546.029419 
	C1850.641113,1547.892212 1850.971802,1551.243164 1852.003174,1553.902710 
	C1848.353394,1554.039795 1844.703735,1554.294434 1841.053955,1554.296387 
	C1790.144043,1554.322266 1739.234253,1554.313477 1688.324341,1554.313232 
	C1684.729736,1554.313232 1681.135132,1554.313354 1676.859619,1554.313354 
	C1676.859619,1573.585083 1676.859619,1592.012451 1676.859619,1611.903809 
	C1762.730469,1611.903809 1848.441650,1611.903809 1935.086182,1612.788818 
	C1938.116089,1616.885986 1939.746460,1620.557129 1942.384033,1623.236816 
	C1960.279175,1641.417603 1978.342041,1659.434326 1996.465820,1677.387695 
	C1999.894775,1680.784424 2002.879761,1684.108643 2002.001953,1689.366089 
	C2000.020508,1689.518066 1998.039062,1689.803345 1996.057617,1689.803101 
	C1909.324707,1689.795410 1822.591675,1689.762329 1734.918213,1688.854736 
	C1733.437378,1681.781982 1729.059326,1678.053589 1725.066772,1674.062134 
	C1679.739014,1628.744507 1634.418213,1583.420044 1589.095703,1538.097290 
	C1571.929199,1520.930786 1554.758057,1503.768921 1537.601318,1486.592651 
	C1534.815186,1483.803223 1531.368530,1481.355469 1532.015381,1476.628906 
	C1549.951050,1476.477173 1567.886597,1476.320435 1585.822266,1476.177734 
	C1589.431274,1476.149048 1593.040649,1476.173706 1597.374512,1476.173706 
	C1597.374512,1458.766357 1597.374512,1442.051880 1597.374512,1424.040039 
	C1554.714233,1424.040039 1512.283936,1424.040039 1468.918335,1423.159424 
	C1465.869629,1419.067383 1464.214722,1415.404541 1461.568970,1412.717285 
	C1443.642822,1394.509399 1425.562378,1376.451904 1407.391113,1358.488281 
	C1403.910645,1355.047485 1401.146484,1351.633301 1402.011841,1346.418823 
	C1403.659546,1346.276367 1405.307373,1346.009277 1406.955078,1346.009399 
	C1464.689453,1346.013672 1522.423950,1346.043335 1581.082031,1346.244141 
z"/>
<path fill="#2297DA" opacity="1.000000" stroke="none" 
	d="
M1531.092773,1476.446289 
	C1531.368530,1481.355469 1534.815186,1483.803223 1537.601318,1486.592651 
	C1554.758057,1503.768921 1571.929199,1520.930786 1589.095703,1538.097290 
	C1634.418213,1583.420044 1679.739014,1628.744507 1725.066772,1674.062134 
	C1729.059326,1678.053589 1733.437378,1681.781982 1733.998535,1688.675049 
	C1715.147095,1689.373047 1696.274780,1689.373047 1676.154053,1689.373047 
	C1676.154053,1708.588989 1676.154053,1726.439087 1676.269531,1745.594727 
	C1677.356567,1747.146118 1678.328125,1747.391968 1679.299805,1747.637695 
	C1681.885498,1747.251587 1684.470947,1746.531250 1687.056885,1746.529541 
	C1724.086914,1746.504028 1761.116821,1746.575317 1799.084229,1747.505615 
	C1802.057007,1751.300293 1803.721558,1754.580200 1806.185913,1757.067871 
	C1827.484619,1778.568115 1848.934326,1799.918457 1870.318726,1821.333862 
	C1873.093262,1824.112305 1876.613770,1826.515869 1875.978638,1831.260376 
	C1874.332397,1831.408569 1872.686035,1831.686401 1871.039795,1831.686157 
	C1817.975098,1831.679443 1764.910522,1831.646118 1710.908325,1830.752686 
	C1708.713379,1827.659546 1707.876343,1825.012451 1706.136475,1823.263428 
	C1673.187866,1790.145874 1640.173218,1757.093384 1607.004395,1724.196655 
	C1604.882202,1722.091919 1601.395386,1721.363159 1598.543457,1719.994385 
	C1598.393311,1716.351562 1598.114746,1712.708862 1598.112427,1709.065918 
	C1598.082153,1661.551636 1598.091187,1614.037476 1598.090332,1566.523193 
	C1598.090332,1562.916382 1598.090332,1559.309570 1598.090332,1554.275635 
	C1564.885132,1554.275635 1532.452637,1554.275635 1498.694092,1554.314209 
	C1497.018433,1555.316284 1496.668823,1556.279663 1496.319214,1557.243164 
	C1496.704224,1559.835449 1497.423584,1562.427734 1497.424927,1565.020142 
	C1497.452271,1616.066895 1497.396240,1667.113770 1496.433105,1719.073730 
	C1490.797729,1720.638672 1488.284668,1717.283813 1485.476074,1714.475830 
	C1465.444092,1694.446899 1445.453125,1674.376587 1425.334106,1654.435547 
	C1422.817749,1651.941406 1419.626831,1650.127930 1416.748413,1647.999146 
	C1416.745850,1617.803223 1416.743408,1587.607300 1417.007324,1556.168213 
	C1416.949829,1554.340088 1416.432251,1554.067017 1415.720703,1554.105591 
	C1391.763062,1554.153931 1367.805420,1554.202148 1342.851807,1553.402466 
	C1339.617798,1549.750732 1337.616211,1546.712402 1335.103760,1544.180908 
	C1316.666382,1525.604248 1298.173706,1507.081543 1279.577759,1488.663696 
	C1276.143921,1485.262573 1273.298584,1481.862061 1273.822021,1476.692017 
	C1276.470215,1476.515991 1279.118286,1476.186035 1281.766479,1476.186279 
	C1364.567627,1476.192383 1447.368896,1476.230469 1531.092773,1476.446289 
z"/>
<path fill="#14C1CB" opacity="1.000000" stroke="none" 
	d="
M2053.246582,1304.014648 
	C2053.376221,1306.996704 2053.618896,1309.978638 2053.618896,1312.960693 
	C2053.618652,1363.536377 2053.588379,1414.112061 2053.565186,1464.687744 
	C2053.563477,1467.992188 2053.564697,1471.296509 2053.564697,1475.790405 
	C2085.808838,1476.552368 2117.506348,1475.954956 2150.419922,1476.184570 
	C2150.419922,1414.054565 2150.419922,1352.947510 2151.245361,1291.029297 
	C2154.819824,1292.584351 2157.728760,1294.790161 2160.292725,1297.342529 
	C2180.576172,1317.534302 2200.806152,1337.779663 2221.020996,1358.040039 
	C2225.055176,1362.083374 2229.014648,1366.152466 2235.357910,1365.971680 
	C2235.512939,1386.180176 2235.704346,1406.388428 2235.810059,1426.597290 
	C2235.877686,1439.525391 2235.790527,1452.454346 2235.837891,1465.382568 
	C2235.849854,1468.612915 2236.114258,1471.842407 2236.314941,1476.212158 
	C2259.974854,1476.212158 2283.078857,1476.212158 2307.100098,1477.121582 
	C2307.238770,1483.111938 2310.827393,1485.832520 2313.858643,1488.862915 
	C2332.607910,1507.606323 2351.405762,1526.301636 2370.034180,1545.164185 
	C2372.472412,1547.633301 2374.033936,1550.968018 2376.001709,1553.901733 
	C2374.019043,1554.041992 2372.036621,1554.305176 2370.053955,1554.305054 
	C2287.985840,1554.297974 2205.917725,1554.267334 2122.852783,1553.390015 
	C2119.837402,1549.959717 2118.057617,1547.141357 2115.762939,1544.835327 
	C2091.595947,1520.549316 2067.346680,1496.344849 2043.119751,1472.118042 
	C2020.981812,1449.980225 1998.850220,1427.835938 1976.697021,1405.713257 
	C1973.913818,1402.933960 1971.507935,1399.414551 1966.769531,1399.987793 
	C1966.612915,1398.010376 1966.319336,1396.033081 1966.319580,1394.055664 
	C1966.324829,1339.320679 1966.359985,1284.585693 1967.252441,1228.942627 
	C1971.061890,1230.008301 1974.416748,1231.570190 1976.892578,1234.020386 
	C1998.446777,1255.352051 2019.876587,1276.809814 2041.253418,1298.319702 
	C2044.646118,1301.733398 2047.927734,1304.886719 2053.246582,1304.014648 
z"/>
<path fill="#17B3D0" opacity="1.000000" stroke="none" 
	d="
M1966.584717,1400.909424 
	C1971.507935,1399.414551 1973.913818,1402.933960 1976.697021,1405.713257 
	C1998.850220,1427.835938 2020.981812,1449.980225 2043.119751,1472.118042 
	C2067.346680,1496.344849 2091.595947,1520.549316 2115.762939,1544.835327 
	C2118.057617,1547.141357 2119.837402,1549.959717 2121.927979,1553.222656 
	C2120.016357,1554.040894 2118.032959,1554.295776 2116.049316,1554.295654 
	C2028.650391,1554.289795 1941.251465,1554.261475 1852.927856,1554.069214 
	C1850.971802,1551.243164 1850.641113,1547.892212 1848.802490,1546.029419 
	C1826.249390,1523.178101 1803.484375,1500.535645 1780.725098,1477.888672 
	C1779.836792,1477.004883 1778.455444,1476.616455 1776.626709,1474.943359 
	C1775.961426,1370.569580 1775.972656,1267.249756 1775.989136,1163.929810 
	C1775.989624,1161.264648 1776.017700,1158.598633 1776.099609,1155.934937 
	C1776.119385,1155.294556 1776.377441,1154.653076 1776.581787,1154.030396 
	C1776.681641,1153.726318 1776.864624,1153.417847 1777.092529,1153.196411 
	C1777.324219,1152.971191 1777.657471,1152.850586 1778.182129,1152.548218 
	C1782.512573,1151.651733 1784.374146,1155.477417 1786.809326,1157.893311 
	C1806.446777,1177.376831 1825.974976,1196.970337 1845.532959,1216.533813 
	C1848.347168,1219.348999 1850.877930,1222.671387 1855.588867,1221.971436 
	C1855.731079,1225.625122 1855.996704,1229.278931 1855.997070,1232.932617 
	C1856.004517,1309.568481 1855.981689,1386.204468 1855.965088,1462.840332 
	C1855.964233,1466.790039 1855.965088,1470.739868 1855.965088,1475.431396 
	C1892.751099,1475.431396 1928.845703,1475.431396 1966.400024,1475.431396 
	C1966.400024,1450.873535 1966.400024,1426.352173 1966.584717,1400.909424 
z"/>
<path fill="#2889E0" opacity="1.000000" stroke="none" 
	d="
M1273.050415,1476.506104 
	C1273.298584,1481.862061 1276.143921,1485.262573 1279.577759,1488.663696 
	C1298.173706,1507.081543 1316.666382,1525.604248 1335.103760,1544.180908 
	C1337.616211,1546.712402 1339.617798,1549.750732 1341.926514,1553.237915 
	C1333.728638,1553.921387 1325.460205,1553.921387 1315.786011,1553.921387 
	C1315.731812,1644.062134 1315.678345,1733.115112 1314.784180,1822.983398 
	C1310.223999,1821.128174 1306.073242,1818.894043 1302.854614,1815.716064 
	C1281.394409,1794.526611 1260.144653,1773.124146 1238.793579,1751.823853 
	C1236.038574,1749.075317 1233.714966,1745.465210 1228.976562,1746.005493 
	C1228.790771,1742.037231 1228.445312,1738.068970 1228.443237,1734.100586 
	C1228.414062,1678.290283 1228.431641,1622.479980 1228.437744,1566.669678 
	C1228.438232,1563.043701 1228.437866,1559.417847 1228.437866,1555.487671 
	C1226.302002,1555.024048 1224.753418,1554.397827 1223.203613,1554.394287 
	C1194.634277,1554.330444 1166.064453,1554.290405 1137.495728,1554.428955 
	C1135.114380,1554.440430 1132.739258,1555.762695 1129.357544,1557.157715 
	C1126.736816,1556.725220 1124.903931,1555.827637 1123.535156,1554.464111 
	C1099.710205,1530.729614 1075.916138,1506.963989 1052.213013,1483.107910 
	C1050.431641,1481.314819 1049.386963,1478.789673 1047.999634,1476.604858 
	C1049.316040,1476.454468 1050.632568,1476.171875 1051.948853,1476.172485 
	C1125.392212,1476.206665 1198.835449,1476.264648 1273.050415,1476.506104 
z"/>
<path fill="#12C8C8" opacity="1.000000" stroke="none" 
	d="
M1855.762695,1221.051270 
	C1850.877930,1222.671387 1848.347168,1219.348999 1845.532959,1216.533813 
	C1825.974976,1196.970337 1806.446777,1177.376831 1786.809326,1157.893311 
	C1784.374146,1155.477417 1782.512573,1151.651733 1778.182129,1152.548218 
	C1777.657471,1152.850586 1777.324219,1152.971191 1777.092529,1153.196411 
	C1776.864624,1153.417847 1776.681641,1153.726318 1776.581787,1154.030396 
	C1776.377441,1154.653076 1776.119385,1155.294556 1776.099609,1155.934937 
	C1776.017700,1158.598633 1775.989624,1161.264648 1775.989136,1163.929810 
	C1775.972656,1267.249756 1775.961426,1370.569580 1775.940186,1474.793213 
	C1775.931030,1475.696899 1775.312012,1475.900269 1774.998535,1475.977295 
	C1774.783447,1471.059326 1774.969116,1466.064453 1774.967407,1461.069458 
	C1774.857300,1130.462891 1774.730225,799.856262 1774.628174,469.249634 
	C1774.626465,463.931274 1774.918091,458.612885 1775.532471,453.522644 
	C1776.014648,547.006104 1776.170410,640.261841 1775.859863,733.515991 
	C1775.827881,743.109680 1777.948730,749.903381 1785.292236,756.754700 
	C1805.249146,775.374329 1824.167603,795.109375 1843.419556,814.479919 
	C1846.817017,817.898254 1850.091431,821.108826 1855.479736,819.702454 
	C1855.685059,822.011292 1856.070557,824.320129 1856.070190,826.628906 
	C1856.045898,957.796326 1855.989502,1088.963745 1855.762695,1221.051270 
z"/>
<path fill="#2C73E7" opacity="1.000000" stroke="none" 
	d="
M1228.773926,1746.922119 
	C1233.714966,1745.465210 1236.038574,1749.075317 1238.793579,1751.823853 
	C1260.144653,1773.124146 1281.394409,1794.526611 1302.854614,1815.716064 
	C1306.073242,1818.894043 1310.223999,1821.128174 1314.593628,1823.902100 
	C1315.388550,1825.656982 1315.660400,1827.308350 1315.660400,1828.959839 
	C1315.657715,1948.694214 1315.633667,2068.428467 1314.743286,2189.069824 
	C1310.933594,2188.000732 1307.588013,2186.433105 1305.114014,2183.984619 
	C1283.594238,2162.685791 1262.205933,2141.253418 1240.846191,2119.793457 
	C1237.489868,2116.421387 1234.290527,2113.083984 1228.929932,2113.995117 
	C1228.752563,2111.350830 1228.420410,2108.706299 1228.420288,2106.062012 
	C1228.416870,1987.651245 1228.442261,1869.240601 1228.469238,1750.829834 
	C1228.469482,1749.832764 1228.535889,1748.835815 1228.773926,1746.922119 
z"/>
<path fill="#0CD4C4" opacity="1.000000" stroke="none" 
	d="
M2235.533447,1365.051880 
	C2229.014648,1366.152466 2225.055176,1362.083374 2221.020996,1358.040039 
	C2200.806152,1337.779663 2180.576172,1317.534302 2160.292725,1297.342529 
	C2157.728760,1294.790161 2154.819824,1292.584351 2151.440430,1290.112427 
	C2150.659912,1288.688599 2150.378174,1287.370239 2150.378174,1286.052002 
	C2150.383789,1186.561646 2150.411865,1087.071167 2150.995605,986.255798 
	C2151.677734,983.930725 2151.802246,982.930603 2151.926758,981.930481 
	C2153.103271,964.584045 2170.017822,950.813599 2184.009521,948.117432 
	C2203.279297,944.404175 2221.414551,952.644531 2230.497559,969.324585 
	C2232.062012,972.197449 2232.935791,975.446228 2234.084473,979.779602 
	C2234.419189,981.948547 2234.797852,982.859192 2235.176758,983.769897 
	C2235.403076,986.412903 2235.827881,989.055969 2235.827637,991.699036 
	C2235.811279,1115.843384 2235.757812,1239.987671 2235.533447,1365.051880 
z"/>
<path fill="#3163ED" opacity="1.000000" stroke="none" 
	d="
M1228.729980,2114.913086 
	C1234.290527,2113.083984 1237.489868,2116.421387 1240.846191,2119.793457 
	C1262.205933,2141.253418 1283.594238,2162.685791 1305.114014,2183.984619 
	C1307.588013,2186.433105 1310.933594,2188.000732 1314.553955,2189.988525 
	C1315.383423,2197.311523 1315.912842,2204.640869 1315.563110,2211.928223 
	C1315.291260,2217.593262 1317.271362,2220.839844 1322.137085,2223.906250 
	C1344.608154,2238.067627 1358.719849,2258.324463 1364.419189,2284.339355 
	C1375.254395,2333.798584 1343.329346,2384.382324 1294.131104,2395.719971 
	C1240.180420,2408.152832 1187.011475,2373.413574 1178.812378,2318.776367 
	C1172.974976,2279.877441 1186.909302,2247.969482 1219.619385,2225.504639 
	C1226.310303,2220.909180 1228.550293,2216.433838 1228.470825,2208.701904 
	C1228.152466,2177.748535 1228.456421,2146.788818 1228.729980,2114.913086 
M1282.228638,2281.993896 
	C1278.350220,2281.315430 1274.458252,2280.000488 1270.596069,2280.082764 
	C1260.643311,2280.294678 1253.687988,2285.530762 1249.900513,2294.614502 
	C1246.092896,2303.746582 1247.680298,2312.362061 1254.182129,2319.664062 
	C1260.377441,2326.621826 1268.368896,2329.444336 1277.595703,2327.083008 
	C1287.539185,2324.538330 1293.976440,2317.985840 1295.627197,2307.939209 
	C1297.404785,2297.119385 1293.315430,2288.407227 1282.228638,2281.993896 
z"/>
<path fill="#2392DC" opacity="1.000000" stroke="none" 
	d="
M1598.365479,1720.917236 
	C1601.395386,1721.363159 1604.882202,1722.091919 1607.004395,1724.196655 
	C1640.173218,1757.093384 1673.187866,1790.145874 1706.136475,1823.263428 
	C1707.876343,1825.012451 1708.713379,1827.659546 1709.989502,1830.567627 
	C1699.123413,1831.246704 1688.238770,1831.246704 1676.779053,1831.246704 
	C1676.779053,1846.528076 1676.779053,1860.651733 1676.779053,1876.265625 
	C1730.731812,1876.265625 1784.440186,1876.265625 1839.083984,1877.130859 
	C1842.184937,1881.168945 1843.927734,1884.758911 1846.583252,1887.447754 
	C1866.333130,1907.444336 1886.245850,1927.280151 1906.155273,1947.118530 
	C1909.476929,1950.428345 1912.968872,1953.535522 1911.960083,1958.921143 
	C1907.994019,1959.120239 1904.028198,1959.490356 1900.062012,1959.492920 
	C1828.975342,1959.539062 1757.888672,1959.502563 1686.802368,1959.666992 
	C1683.275513,1959.675171 1678.714478,1957.415283 1675.302124,1963.160034 
	C1671.135132,1961.888550 1667.455444,1960.262207 1664.773193,1957.622192 
	C1646.569214,1939.705933 1628.524170,1921.626831 1610.559570,1903.469727 
	C1607.138672,1900.012207 1603.763550,1897.149536 1598.532471,1897.994995 
	C1598.382690,1896.016357 1598.101562,1894.037598 1598.101929,1892.058960 
	C1598.113159,1835.319336 1598.152710,1778.579834 1598.365479,1720.917236 
z"/>
<path fill="#18B2D1" opacity="1.000000" stroke="none" 
	d="
M2203.995605,1747.981201 
	C2206.644043,1746.238403 2209.771240,1744.940063 2211.867188,1742.683960 
	C2232.708008,1720.251099 2258.134033,1711.298462 2287.804932,1719.085571 
	C2317.363525,1726.843262 2336.279785,1746.624634 2342.705566,1776.589844 
	C2350.655518,1813.663452 2330.976562,1845.743896 2302.137451,1859.896118 
	C2271.466309,1874.947021 2233.809082,1867.376221 2212.072998,1841.716919 
	C2210.997070,1840.446655 2209.719727,1839.254761 2208.991455,1837.798584 
	C2206.187256,1832.189575 2201.657959,1831.484253 2195.806641,1831.545776 
	C2167.161865,1831.847046 2138.511719,1831.639038 2108.922119,1830.742676 
	C2105.462646,1825.726074 2103.620850,1820.916138 2100.315918,1817.537842 
	C2080.360596,1797.141235 2060.053711,1777.088623 2039.911621,1756.874146 
	C2037.176392,1754.129150 2033.460327,1751.863037 2034.045654,1747.082520 
	C2035.356201,1746.891479 2036.666748,1746.532715 2037.977173,1746.533569 
	C2091.531738,1746.569092 2145.086182,1746.636719 2199.959473,1747.219238 
	C2202.184326,1747.819092 2203.089844,1747.900146 2203.995605,1747.981201 
z"/>
<path fill="#09E0C0" opacity="1.000000" stroke="none" 
	d="
M1916.605957,765.962585 
	C1893.503296,712.969421 1927.866943,648.770264 1985.088745,638.020752 
	C2037.510498,628.172852 2086.005371,659.560608 2096.530029,711.866699 
	C2104.140625,749.690613 2092.031738,781.700989 2061.489258,805.670776 
	C2055.424316,810.430664 2053.431885,814.924316 2053.547363,822.175598 
	C2053.907471,844.825623 2053.625977,867.485901 2052.698486,891.063965 
	C2046.204956,892.767883 2043.512939,888.472229 2040.295410,885.259460 
	C2002.606079,847.625671 1964.962524,809.946228 1927.277710,772.307983 
	C1924.283813,769.317810 1921.765503,765.376099 1916.605957,765.962585 
M2027.858276,734.165588 
	C2027.871582,732.178162 2028.087646,730.167786 2027.865479,728.206970 
	C2026.318359,714.543640 2013.748291,704.902893 2000.408813,707.063965 
	C1987.246582,709.196289 1978.196777,721.548279 1980.279419,734.538208 
	C1982.449951,748.075256 1995.179932,756.839478 2008.859863,754.127380 
	C2019.073486,752.102417 2024.911499,745.518188 2027.858276,734.165588 
z"/>
<path fill="#14BCCC" opacity="1.000000" stroke="none" 
	d="
M1675.929688,1217.073364 
	C1671.583618,1218.570312 1669.000000,1216.039429 1666.344604,1213.380493 
	C1624.431030,1171.414551 1582.463623,1129.502563 1540.605713,1087.481201 
	C1538.619141,1085.486816 1537.535645,1082.592773 1536.012817,1079.439209 
	C1556.214844,1078.760620 1576.435791,1078.760620 1598.135864,1078.760620 
	C1598.135864,989.683716 1598.135864,901.746521 1599.014404,812.907837 
	C1603.089844,814.165100 1606.713257,815.890686 1609.414307,818.552246 
	C1627.635498,836.507080 1645.729370,854.593140 1663.691528,872.807068 
	C1667.187500,876.352051 1670.727783,878.793335 1675.869629,877.999207 
	C1676.005127,879.651306 1676.259766,881.303406 1676.259155,882.955444 
	C1676.218872,994.020020 1676.157837,1105.084595 1675.929688,1217.073364 
z"/>
<path fill="#08DDC0" opacity="1.000000" stroke="none" 
	d="
M1855.651733,818.944702 
	C1850.091431,821.108826 1846.817017,817.898254 1843.419556,814.479919 
	C1824.167603,795.109375 1805.249146,775.374329 1785.292236,756.754700 
	C1777.948730,749.903381 1775.827881,743.109680 1775.859863,733.515991 
	C1776.170410,640.261841 1776.014648,547.006104 1775.946045,452.806488 
	C1777.039917,434.043518 1791.313232,418.535431 1808.886475,416.022217 
	C1828.473755,413.220947 1847.019653,423.718567 1853.432495,441.811005 
	C1855.168091,446.707886 1855.917603,452.167267 1856.020264,457.390076 
	C1856.327393,472.997009 1856.089355,488.614655 1855.366699,505.780579 
	C1854.454712,508.961548 1854.054321,510.589905 1854.052979,512.218567 
	C1854.013306,564.294678 1853.988647,616.370789 1854.076416,668.446716 
	C1854.080566,670.945923 1855.125244,673.443481 1855.685425,675.941772 
	C1855.788330,676.863281 1855.891235,677.784729 1855.312256,680.019409 
	C1854.443481,696.380737 1854.220581,711.428772 1854.141113,726.477539 
	C1854.134888,727.632324 1855.138794,728.792419 1855.673096,729.950073 
	C1855.777710,748.030762 1855.882324,766.111389 1855.364258,785.566162 
	C1855.046387,789.282471 1855.350952,791.624695 1855.655518,793.966980 
	C1855.711548,802.040283 1855.767700,810.113586 1855.651733,818.944702 
z"/>
<path fill="#2A86E1" opacity="1.000000" stroke="none" 
	d="
M1416.565918,1648.920166 
	C1419.626831,1650.127930 1422.817749,1651.941406 1425.334106,1654.435547 
	C1445.453125,1674.376587 1465.444092,1694.446899 1485.476074,1714.475830 
	C1488.284668,1717.283813 1490.797729,1720.638672 1496.191406,1719.976807 
	C1497.084961,1722.605103 1497.479980,1725.243286 1497.480957,1727.881836 
	C1497.522583,1837.648560 1497.529175,1947.415161 1497.534546,2057.181885 
	C1497.534546,2058.178711 1497.455688,2059.175293 1496.554443,2060.962402 
	C1491.987549,2059.024902 1487.880371,2056.702393 1484.637207,2053.503662 
	C1465.210815,2034.343384 1445.990356,2014.974243 1426.680908,1995.695312 
	C1423.899414,1992.917969 1421.492676,1989.404175 1416.753296,1990.009888 
	C1416.596313,1988.360596 1416.301758,1986.711426 1416.302002,1985.062134 
	C1416.313843,1873.321777 1416.349609,1761.581421 1416.565918,1648.920166 
z"/>
<path fill="#287EE3" opacity="1.000000" stroke="none" 
	d="
M1047.076904,1476.429688 
	C1049.386963,1478.789673 1050.431641,1481.314819 1052.213013,1483.107910 
	C1075.916138,1506.963989 1099.710205,1530.729614 1123.535156,1554.464111 
	C1124.903931,1555.827637 1126.736816,1556.725220 1129.020142,1557.921631 
	C1129.821411,1559.652832 1130.074097,1561.302002 1130.074219,1562.951050 
	C1130.077271,1622.686768 1130.056396,1682.422363 1129.119507,1743.079834 
	C1123.157593,1744.768677 1120.332886,1741.359009 1117.268188,1738.288086 
	C1098.497803,1719.478516 1079.832031,1700.560913 1060.801636,1682.017578 
	C1056.669800,1677.991455 1051.195679,1675.342896 1046.208252,1671.124023 
	C1046.038208,1664.225586 1045.985596,1658.263062 1045.963379,1652.300659 
	C1045.845337,1620.507202 1045.734741,1588.713623 1045.621582,1556.920166 
	C1042.635986,1553.008179 1038.333496,1554.377808 1034.520630,1554.364624 
	C1001.628601,1554.250366 968.736145,1554.264404 934.848694,1553.385620 
	C931.609741,1549.728394 929.599731,1546.693604 927.084839,1544.160034 
	C908.636841,1525.574097 890.131592,1507.044312 871.530884,1488.611206 
	C868.100708,1485.211792 865.114685,1481.885132 865.999146,1476.624268 
	C867.977356,1476.469727 869.955505,1476.180176 871.933716,1476.180420 
	C930.007141,1476.187256 988.080627,1476.223145 1047.076904,1476.429688 
z"/>
<path fill="#0ADDC1" opacity="1.000000" stroke="none" 
	d="
M1598.448242,517.963623 
	C1598.448242,496.004822 1598.448242,474.046051 1598.448242,451.714874 
	C1543.114624,430.464355 1510.473633,391.446075 1506.912476,332.232880 
	C1504.391602,290.318085 1520.830688,254.927704 1553.442139,227.752029 
	C1553.413818,232.867279 1555.119629,236.364029 1558.486572,239.600052 
	C1567.257812,248.030411 1575.642944,256.862915 1584.429688,265.276550 
	C1586.674438,267.425995 1589.839111,268.614777 1592.244385,270.840820 
	C1573.892822,286.965210 1564.948486,306.498779 1565.954712,330.389008 
	C1567.603638,369.535126 1601.932373,401.117004 1643.689087,397.236694 
	C1662.479248,395.490601 1677.671265,386.537415 1691.380615,373.647095 
	C1703.123657,384.697388 1714.087280,395.539337 1725.273193,406.146698 
	C1727.770386,408.514771 1731.048828,410.058929 1733.967529,411.982361 
	C1722.811035,426.551270 1708.067383,436.450928 1691.761719,444.272827 
	C1686.989502,446.562195 1682.077759,448.560883 1676.232666,451.131470 
	C1676.232666,494.635193 1676.232666,538.392212 1675.368164,583.001343 
	C1670.726196,581.292908 1666.458374,579.232483 1663.252686,576.088867 
	C1645.507568,558.687134 1627.962158,541.079651 1610.495728,523.397095 
	C1607.059814,519.918762 1603.637329,517.187500 1598.448242,517.963623 
z"/>
<path fill="#2D72E7" opacity="1.000000" stroke="none" 
	d="
M1416.577393,1990.931396 
	C1421.492676,1989.404175 1423.899414,1992.917969 1426.680908,1995.695312 
	C1445.990356,2014.974243 1465.210815,2034.343384 1484.637207,2053.503662 
	C1487.880371,2056.702393 1491.987549,2059.024902 1496.319824,2061.869141 
	C1497.129028,2063.630127 1497.475708,2065.274902 1497.475708,2066.919434 
	C1497.477905,2172.003662 1497.451782,2277.088135 1496.513428,2383.086670 
	C1490.486572,2384.674561 1487.901733,2380.875977 1484.907349,2377.886963 
	C1465.472900,2358.488281 1446.071777,2339.056641 1426.641357,2319.654297 
	C1423.874146,2316.891113 1421.473511,2313.411621 1416.767578,2314.001221 
	C1416.609985,2312.019775 1416.314087,2310.038086 1416.314331,2308.056641 
	C1416.327759,2202.655518 1416.365967,2097.254150 1416.577393,1990.931396 
z"/>
<path fill="#0DCFC5" opacity="1.000000" stroke="none" 
	d="
M2376.927002,1554.065308 
	C2374.033936,1550.968018 2372.472412,1547.633301 2370.034180,1545.164185 
	C2351.405762,1526.301636 2332.607910,1507.606323 2313.858643,1488.862915 
	C2310.827393,1485.832520 2307.238770,1483.111938 2308.021973,1477.307129 
	C2309.676270,1476.439087 2311.325684,1476.169067 2312.975342,1476.168945 
	C2393.375244,1476.162231 2473.774902,1476.179077 2555.104248,1477.068604 
	C2558.194824,1481.135498 2559.912354,1484.768555 2562.583496,1487.452637 
	C2601.945312,1527.007080 2641.467041,1566.402588 2680.825439,1605.960693 
	C2683.738281,1608.888428 2685.692139,1612.770020 2688.091797,1616.208252 
	C2657.346191,1625.501465 2629.042236,1619.738647 2603.041260,1601.763184 
	C2586.168457,1590.098755 2574.542236,1574.097290 2566.905273,1554.228882 
	C2504.024414,1554.228882 2440.938477,1554.228882 2376.927002,1554.065308 
z"/>
<path fill="#2C73E7" opacity="1.000000" stroke="none" 
	d="
M1598.511963,2470.007080 
	C1598.360474,2468.024902 1598.076172,2466.042969 1598.076538,2464.060791 
	C1598.092041,2365.324707 1598.132080,2266.588867 1599.040649,2166.942871 
	C1602.857910,2167.938965 1606.234741,2169.408691 1608.681396,2171.821289 
	C1627.029907,2189.915527 1645.077881,2208.316406 1663.524048,2226.309570 
	C1666.901123,2229.603516 1671.665161,2231.475586 1675.789062,2234.003906 
	C1675.926636,2235.988037 1676.184204,2237.972168 1676.184448,2239.956299 
	C1676.194580,2338.689941 1676.182617,2437.423828 1675.280029,2537.071045 
	C1671.168091,2535.899170 1667.481812,2534.288330 1664.805176,2531.652100 
	C1645.916382,2513.048584 1627.234619,2494.234131 1608.487549,2475.486572 
	C1605.693237,2472.692139 1603.193604,2469.364258 1598.511963,2470.007080 
z"/>
<path fill="#0DCFC5" opacity="1.000000" stroke="none" 
	d="
M1598.268555,518.889404 
	C1603.637329,517.187500 1607.059814,519.918762 1610.495728,523.397095 
	C1627.962158,541.079651 1645.507568,558.687134 1663.252686,576.088867 
	C1666.458374,579.232483 1670.726196,581.292908 1675.200928,583.925964 
	C1676.037109,585.982178 1676.297852,587.965759 1676.297363,589.949402 
	C1676.278442,685.349121 1676.236816,780.748901 1676.033691,877.073914 
	C1670.727783,878.793335 1667.187500,876.352051 1663.691528,872.807068 
	C1645.729370,854.593140 1627.635498,836.507080 1609.414307,818.552246 
	C1606.713257,815.890686 1603.089844,814.165100 1599.196899,811.984436 
	C1598.355835,809.979431 1598.084473,807.996460 1598.084106,806.013428 
	C1598.071045,710.614014 1598.081299,615.214600 1598.268555,518.889404 
z"/>
<path fill="#0CD4C4" opacity="1.000000" stroke="none" 
	d="
M1916.682739,766.644409 
	C1921.765503,765.376099 1924.283813,769.317810 1927.277710,772.307983 
	C1964.962524,809.946228 2002.606079,847.625671 2040.295410,885.259460 
	C2043.512939,888.472229 2046.204956,892.767883 2052.515137,891.982300 
	C2053.383301,893.959045 2053.677734,895.939331 2053.677490,897.919617 
	C2053.666504,978.657166 2053.629395,1059.394653 2052.738281,1141.041260 
	C2048.934082,1139.979980 2045.578613,1138.422729 2043.104736,1135.974609 
	C2021.552734,1114.646240 2000.125244,1093.191284 1978.751343,1071.684082 
	C1975.359375,1068.270996 1972.076294,1065.121338 1966.762329,1065.966919 
	C1966.612305,1061.990967 1966.332886,1058.015015 1966.331299,1054.039062 
	C1966.301147,978.600830 1966.192383,903.162170 1966.477295,827.725037 
	C1966.504761,820.431519 1964.313477,816.693665 1957.857544,813.191101 
	C1938.856689,802.882507 1925.220337,787.310364 1916.682739,766.644409 
z"/>
<path fill="#17B3D0" opacity="1.000000" stroke="none" 
	d="
M2002.923218,1689.546753 
	C2002.879761,1684.108643 1999.894775,1680.784424 1996.465820,1677.387695 
	C1978.342041,1659.434326 1960.279175,1641.417603 1942.384033,1623.236816 
	C1939.746460,1620.557129 1938.116089,1616.885986 1936.009888,1612.960449 
	C1937.651245,1612.108765 1939.302246,1611.849731 1940.953369,1611.849487 
	C2032.686401,1611.836426 2124.419434,1611.844971 2217.085938,1612.738647 
	C2220.106689,1616.845093 2221.721680,1620.528931 2224.357910,1623.207886 
	C2242.261230,1641.400757 2260.334229,1659.428223 2278.469971,1677.390137 
	C2281.904297,1680.791260 2284.868652,1684.126831 2284.013916,1689.378906 
	C2282.032227,1689.531860 2280.050293,1689.818848 2278.068604,1689.818604 
	C2186.660645,1689.803955 2095.252441,1689.764282 2002.923218,1689.546753 
z"/>
<path fill="#3163ED" opacity="1.000000" stroke="none" 
	d="
M1416.587158,2314.922363 
	C1421.473511,2313.411621 1423.874146,2316.891113 1426.641357,2319.654297 
	C1446.071777,2339.056641 1465.472900,2358.488281 1484.907349,2377.886963 
	C1487.901733,2380.875977 1490.486572,2384.674561 1496.292358,2383.997314 
	C1497.167114,2386.306396 1497.504639,2388.619385 1497.506104,2390.932129 
	C1497.546631,2455.501709 1497.554565,2520.071289 1497.555420,2584.640869 
	C1497.555420,2585.968750 1497.408569,2587.296631 1496.834961,2589.807129 
	C1496.173706,2591.404297 1496.143799,2591.828613 1496.249756,2592.262939 
	C1493.986816,2609.411621 1480.979980,2623.208008 1464.497559,2625.942383 
	C1446.119873,2628.991455 1428.362061,2620.200195 1420.570801,2604.025146 
	C1419.294312,2601.375244 1418.682251,2598.405518 1417.782837,2594.525146 
	C1417.738647,2593.055420 1417.556152,2592.706055 1417.255249,2592.418457 
	C1416.936157,2589.466064 1416.338867,2586.513672 1416.338379,2583.561279 
	C1416.325073,2494.322021 1416.370483,2405.083008 1416.587158,2314.922363 
z"/>
<path fill="#3163ED" opacity="1.000000" stroke="none" 
	d="
M1598.337402,2470.929688 
	C1603.193604,2469.364258 1605.693237,2472.692139 1608.487549,2475.486572 
	C1627.234619,2494.234131 1645.916382,2513.048584 1664.805176,2531.652100 
	C1667.481812,2534.288330 1671.168091,2535.899170 1675.105469,2537.994629 
	C1675.959595,2539.993164 1676.213135,2541.981445 1676.214111,2543.969727 
	C1676.247437,2612.919434 1676.296387,2681.869141 1676.244141,2750.818848 
	C1676.229858,2769.576904 1665.703613,2784.289795 1648.949463,2789.537598 
	C1625.270996,2796.954834 1600.679077,2780.526611 1598.244507,2755.636963 
	C1598.050537,2753.653320 1598.055420,2751.644775 1598.056152,2749.647949 
	C1598.085449,2657.049316 1598.124634,2564.450684 1598.337402,2470.929688 
z"/>
<path fill="#12C3CA" opacity="1.000000" stroke="none" 
	d="
M2284.934082,1689.558350 
	C2284.868652,1684.126831 2281.904297,1680.791260 2278.469971,1677.390137 
	C2260.334229,1659.428223 2242.261230,1641.400757 2224.357910,1623.207886 
	C2221.721680,1620.528931 2220.106689,1616.845093 2218.010254,1612.908936 
	C2219.988281,1612.054810 2221.975342,1611.799072 2223.962646,1611.797852 
	C2313.858154,1611.746582 2403.753662,1611.769897 2493.648926,1611.613403 
	C2503.827148,1611.595703 2512.799072,1614.369507 2520.191406,1621.179443 
	C2532.582520,1632.594116 2536.716064,1646.607422 2531.657227,1662.866699 
	C2527.073242,1677.599731 2513.280273,1688.330811 2497.602783,1689.727051 
	C2495.948242,1689.874390 2494.276367,1689.862183 2492.612549,1689.861328 
	C2423.693115,1689.824585 2354.773926,1689.780762 2284.934082,1689.558350 
z"/>
<path fill="#238EDD" opacity="1.000000" stroke="none" 
	d="
M1066.008423,1292.053467 
	C1060.928833,1291.136353 1057.466919,1293.183960 1053.988770,1297.025513 
	C1039.105835,1313.464233 1020.170410,1321.496216 998.144165,1321.463867 
	C961.348145,1321.409790 928.625488,1292.686035 924.109863,1257.041382 
	C919.192932,1218.228271 942.156128,1182.278931 979.081055,1173.214844 
	C995.284363,1169.237549 1011.706360,1169.207275 1027.731689,1177.450562 
	C1041.513916,1184.539917 1053.651611,1192.695557 1062.190918,1205.844604 
	C1063.422852,1207.741577 1066.405151,1208.501709 1069.799438,1209.944580 
	C1071.021606,1210.100952 1071.994507,1210.296631 1072.079346,1210.965942 
	C1074.447998,1214.428467 1076.517334,1217.434937 1079.049316,1219.981445 
	C1099.914551,1240.966553 1120.877441,1261.854492 1141.777466,1282.805176 
	C1144.767334,1285.802246 1148.678345,1288.340454 1147.999268,1293.504150 
	C1121.764893,1293.438599 1095.530640,1293.373047 1068.170898,1292.790283 
	C1066.714111,1292.133057 1066.368408,1292.059814 1066.008423,1292.053467 
z"/>
<path fill="#2783E1" opacity="1.000000" stroke="none" 
	d="
M1675.963135,2233.080078 
	C1671.665161,2231.475586 1666.901123,2229.603516 1663.524048,2226.309570 
	C1645.077881,2208.316406 1627.029907,2189.915527 1608.681396,2171.821289 
	C1606.234741,2169.408691 1602.857910,2167.938965 1599.217285,2166.021484 
	C1598.371948,2164.028809 1598.089111,2162.047119 1598.089355,2160.065430 
	C1598.103638,2073.324219 1598.142700,1986.582886 1598.355713,1898.918335 
	C1603.763550,1897.149536 1607.138672,1900.012207 1610.559570,1903.469727 
	C1628.524170,1921.626831 1646.569214,1939.705933 1664.773193,1957.622192 
	C1667.455444,1960.262207 1671.135132,1961.888550 1675.068848,1963.995117 
	C1675.919922,1965.657593 1676.174194,1967.308716 1676.174194,1968.959961 
	C1676.175415,2056.691895 1676.155396,2144.424072 1675.963135,2233.080078 
z"/>
<path fill="#2B72E7" opacity="1.000000" stroke="none" 
	d="
M865.077332,1476.444336 
	C865.114685,1481.885132 868.100708,1485.211792 871.530884,1488.611206 
	C890.131592,1507.044312 908.636841,1525.574097 927.084839,1544.160034 
	C929.599731,1546.693604 931.609741,1549.728394 933.924561,1553.212646 
	C930.678101,1554.031128 927.360718,1554.286255 924.043152,1554.287109 
	C862.477356,1554.303589 800.911560,1554.277100 739.345764,1554.321899 
	C736.410522,1554.324097 733.475708,1554.901001 729.380371,1554.778076 
	C714.910339,1540.661377 701.839172,1526.731812 688.173401,1513.412354 
	C682.710815,1508.088257 677.413635,1501.955322 668.754517,1499.853882 
	C663.433289,1495.176025 658.618164,1490.890747 653.850952,1485.835938 
	C653.176208,1477.932129 647.944153,1473.387207 643.552185,1468.807861 
	C632.106445,1456.874023 619.940002,1445.634155 608.269470,1433.909912 
	C606.313599,1431.944946 605.400330,1428.942139 604.005371,1426.418945 
	C638.117432,1414.167969 669.378845,1420.305420 698.174438,1441.313232 
	C708.790344,1449.058228 716.977661,1459.097778 723.698120,1470.367188 
	C725.200684,1472.886841 727.081482,1475.181152 729.680054,1477.765259 
	C730.571899,1477.951416 731.415955,1477.686157 731.415955,1477.686157 
	C734.997742,1477.178101 738.578857,1476.234985 742.161499,1476.228760 
	C782.826050,1476.158081 823.490784,1476.230469 865.077332,1476.444336 
z"/>
<path fill="#0BDBC1" opacity="1.000000" stroke="none" 
	d="
M2688.857910,1616.205566 
	C2685.692139,1612.770020 2683.738281,1608.888428 2680.825439,1605.960693 
	C2641.467041,1566.402588 2601.945312,1527.007080 2562.583496,1487.452637 
	C2559.912354,1484.768555 2558.194824,1481.135498 2556.026123,1477.251465 
	C2558.282471,1476.560669 2560.546631,1476.562134 2563.853516,1477.116211 
	C2565.306396,1477.857544 2565.737061,1477.940918 2566.188232,1477.919189 
	C2571.302246,1478.780518 2571.958740,1474.419189 2573.721680,1471.426758 
	C2586.701416,1449.398438 2604.966064,1433.718994 2629.282715,1425.453369 
	C2688.620117,1405.283325 2751.142090,1444.167480 2760.476562,1506.186523 
	C2767.833740,1555.068481 2735.809814,1603.855957 2688.857910,1616.205566 
M2698.378662,1517.386841 
	C2695.597656,1495.629028 2678.745850,1481.302002 2658.136230,1483.173706 
	C2635.401123,1485.238403 2622.398682,1500.310669 2624.111816,1523.404541 
	C2625.249268,1538.742554 2633.537354,1549.403198 2647.691406,1555.283447 
	C2652.170654,1557.144287 2657.267578,1560.087646 2661.568604,1559.386719 
	C2687.465332,1555.166504 2699.579346,1537.491333 2698.378662,1517.386841 
z"/>
<path fill="#20A5D6" opacity="1.000000" stroke="none" 
	d="
M2033.132080,1746.844604 
	C2033.460327,1751.863037 2037.176392,1754.129150 2039.911621,1756.874146 
	C2060.053711,1777.088623 2080.360596,1797.141235 2100.315918,1817.537842 
	C2103.620850,1820.916138 2105.462646,1825.726074 2108.003174,1830.564453 
	C2106.377441,1831.408936 2104.729248,1831.698242 2103.081055,1831.698120 
	C2027.995239,1831.691040 1952.909546,1831.658936 1876.901123,1831.445068 
	C1876.613770,1826.515869 1873.093262,1824.112305 1870.318726,1821.333862 
	C1848.934326,1799.918457 1827.484619,1778.568115 1806.185913,1757.067871 
	C1803.721558,1754.580200 1802.057007,1751.300293 1799.989990,1747.734863 
	C1801.598877,1746.880493 1803.239258,1746.502686 1804.879761,1746.502930 
	C1880.659302,1746.516724 1956.438965,1746.563599 2033.132080,1746.844604 
z"/>
<path fill="#2297DA" opacity="1.000000" stroke="none" 
	d="
M1401.088135,1346.241699 
	C1401.146484,1351.633301 1403.910645,1355.047485 1407.391113,1358.488281 
	C1425.562378,1376.451904 1443.642822,1394.509399 1461.568970,1412.717285 
	C1464.214722,1415.404541 1465.869629,1419.067383 1467.995239,1422.988281 
	C1466.025146,1423.840942 1464.042847,1424.109253 1462.060547,1424.109253 
	C1381.322876,1424.108276 1300.585205,1424.083008 1218.922241,1423.143555 
	C1218.774536,1417.194214 1215.390869,1414.360962 1212.319946,1411.297241 
	C1194.002197,1393.022461 1175.720093,1374.711914 1157.417114,1356.422363 
	C1154.607910,1353.615234 1151.348633,1351.072266 1152.001221,1346.403198 
	C1153.650879,1346.258423 1155.300415,1345.986694 1156.950073,1345.986938 
	C1238.021484,1345.998169 1319.092896,1346.032593 1401.088135,1346.241699 
z"/>
<path fill="#3069EB" opacity="1.000000" stroke="none" 
	d="
M669.260681,1500.246582 
	C677.413635,1501.955322 682.710815,1508.088257 688.173401,1513.412354 
	C701.839172,1526.731812 714.910339,1540.661377 728.543335,1555.089355 
	C715.429810,1594.273438 687.189941,1615.196777 647.925293,1619.530884 
	C605.700317,1624.192139 572.215210,1606.974731 550.547668,1570.370239 
	C519.026855,1517.119873 543.787170,1448.235107 603.293579,1426.436157 
	C605.400330,1428.942139 606.313599,1431.944946 608.269470,1433.909912 
	C619.940002,1445.634155 632.106445,1456.874023 643.552185,1468.807861 
	C647.944153,1473.387207 653.176208,1477.932129 653.035095,1485.646973 
	C646.680359,1485.238403 641.186035,1483.394409 635.699036,1483.416138 
	C617.278259,1483.488770 601.593750,1498.006958 599.999451,1515.722656 
	C598.155457,1536.213013 609.765808,1552.532349 629.364990,1556.998535 
	C647.462585,1561.122681 665.470642,1550.611816 671.999573,1532.850952 
	C676.232788,1521.335571 673.610596,1510.821167 669.260681,1500.246582 
z"/>
<path fill="#20A0D7" opacity="1.000000" stroke="none" 
	d="
M1912.873535,1959.157227 
	C1912.968872,1953.535522 1909.476929,1950.428345 1906.155273,1947.118530 
	C1886.245850,1927.280151 1866.333130,1907.444336 1846.583252,1887.447754 
	C1843.927734,1884.758911 1842.184937,1881.168945 1840.004639,1877.308228 
	C1842.973022,1876.466553 1845.956299,1876.179810 1848.939575,1876.178833 
	C1920.839966,1876.155762 1992.740234,1876.149292 2064.640625,1876.198486 
	C2069.284424,1876.201660 2074.024414,1876.165283 2078.554932,1877.020142 
	C2099.183838,1880.913086 2114.198242,1899.880737 2112.819092,1919.880981 
	C2111.289307,1942.071899 2094.078613,1958.811646 2071.562744,1959.447632 
	C2057.593018,1959.842163 2043.603394,1959.540405 2029.622803,1959.526855 
	C1991.010864,1959.489136 1952.398926,1959.438721 1912.873535,1959.157227 
z"/>
<path fill="#2589DF" opacity="1.000000" stroke="none" 
	d="
M1151.077393,1346.231201 
	C1151.348633,1351.072266 1154.607910,1353.615234 1157.417114,1356.422363 
	C1175.720093,1374.711914 1194.002197,1393.022461 1212.319946,1411.297241 
	C1215.390869,1414.360962 1218.774536,1417.194214 1217.999023,1422.970337 
	C1216.351074,1423.852173 1214.700928,1424.110718 1213.050781,1424.110718 
	C1137.981812,1424.110352 1062.912842,1424.087402 986.839417,1423.207520 
	C983.252441,1418.594238 981.152771,1414.366211 978.007935,1411.164917 
	C959.937561,1392.770020 941.623413,1374.614380 923.381287,1356.388428 
	C920.578430,1353.587891 917.350830,1351.041870 918.001587,1346.394043 
	C919.982849,1346.247681 921.964172,1345.973022 923.945435,1345.973389 
	C999.348206,1345.986328 1074.750977,1346.024414 1151.077393,1346.231201 
z"/>
<path fill="#2B72E7" opacity="1.000000" stroke="none" 
	d="
M1046.339722,1672.059937 
	C1051.195679,1675.342896 1056.669800,1677.991455 1060.801636,1682.017578 
	C1079.832031,1700.560913 1098.497803,1719.478516 1117.268188,1738.288086 
	C1120.332886,1741.359009 1123.157593,1744.768677 1128.941895,1744.002686 
	C1129.823608,1745.652954 1130.085571,1747.302246 1130.085693,1748.951660 
	C1130.090454,1819.352661 1130.071655,1889.753784 1129.170654,1961.067383 
	C1125.060913,1959.856934 1121.378540,1958.197510 1118.684570,1955.537231 
	C1097.579346,1934.695801 1077.177979,1913.105835 1055.406494,1892.994995 
	C1047.925903,1886.084961 1045.753418,1879.544922 1045.810425,1870.007690 
	C1046.171143,1809.686401 1045.979126,1749.361816 1046.000854,1689.038330 
	C1046.002930,1683.378906 1046.221558,1677.719360 1046.339722,1672.059937 
z"/>
<path fill="#07E8BD" opacity="1.000000" stroke="none" 
	d="
M1734.567261,411.681396 
	C1731.048828,410.058929 1727.770386,408.514771 1725.273193,406.146698 
	C1714.087280,395.539337 1703.123657,384.697388 1691.718262,373.020630 
	C1692.897583,369.928101 1694.521973,367.809021 1695.966553,365.573761 
	C1712.954834,339.288330 1711.205200,305.935272 1691.592651,281.631226 
	C1672.727661,258.253235 1639.633423,249.411453 1611.086548,260.540955 
	C1604.637207,263.055328 1598.735107,266.973206 1592.581055,270.244995 
	C1589.839111,268.614777 1586.674438,267.425995 1584.429688,265.276550 
	C1575.642944,256.862915 1567.257812,248.030411 1558.486572,239.600052 
	C1555.119629,236.364029 1553.413818,232.867279 1554.026123,227.515442 
	C1571.041748,211.350021 1591.382446,202.572937 1613.610352,198.579880 
	C1677.029053,187.187256 1739.253296,223.339874 1759.470093,284.321747 
	C1774.813354,330.603363 1766.580322,373.485809 1734.567261,411.681396 
z"/>
<path fill="#2098D9" opacity="1.000000" stroke="none" 
	d="
M1148.921631,1293.682617 
	C1148.678345,1288.340454 1144.767334,1285.802246 1141.777466,1282.805176 
	C1120.877441,1261.854492 1099.914551,1240.966553 1079.049316,1219.981445 
	C1076.517334,1217.434937 1074.447998,1214.428467 1072.335815,1210.839600 
	C1072.856689,1209.901001 1073.191284,1209.729248 1073.510986,1209.528564 
	C1075.140503,1209.258545 1076.770264,1208.751831 1078.399658,1208.752563 
	C1142.325073,1208.777222 1206.250488,1208.848267 1271.104980,1209.831299 
	C1274.146973,1213.623413 1275.938965,1216.815552 1278.423462,1219.321533 
	C1299.021484,1240.097168 1319.697754,1260.796387 1340.483765,1281.383911 
	C1343.953613,1284.820679 1346.629883,1288.309326 1346.297607,1293.424316 
	C1343.984985,1293.598633 1341.672241,1293.925049 1339.359619,1293.925049 
	C1276.187744,1293.924194 1213.015747,1293.889893 1148.921631,1293.682617 
z"/>
<path fill="#287EE3" opacity="1.000000" stroke="none" 
	d="
M917.078003,1346.220215 
	C917.350830,1351.041870 920.578430,1353.587891 923.381287,1356.388428 
	C941.623413,1374.614380 959.937561,1392.770020 978.007935,1411.164917 
	C981.152771,1414.366211 983.252441,1418.594238 985.916382,1423.031982 
	C984.008850,1423.856079 982.019836,1424.118164 980.030762,1424.119019 
	C917.700134,1424.148071 855.369507,1424.201538 793.039001,1424.128052 
	C774.666138,1424.106323 760.000916,1413.901245 754.508789,1397.793579 
	C746.216309,1373.472778 763.424805,1347.731934 789.164734,1346.058716 
	C793.148926,1345.799683 797.161377,1345.950562 801.160767,1345.953247 
	C839.492004,1345.979248 877.823242,1346.014160 917.078003,1346.220215 
z"/>
<path fill="#13C6CA" opacity="1.000000" stroke="none" 
	d="
M1966.572266,1066.889160 
	C1972.076294,1065.121338 1975.359375,1068.270996 1978.751343,1071.684082 
	C2000.125244,1093.191284 2021.552734,1114.646240 2043.104736,1135.974609 
	C2045.578613,1138.422729 2048.934082,1139.979980 2052.559326,1141.959717 
	C2053.396729,1143.946289 2053.694824,1145.923340 2053.694336,1147.900513 
	C2053.686768,1199.323853 2053.648193,1250.747070 2053.430664,1303.092529 
	C2047.927734,1304.886719 2044.646118,1301.733398 2041.253418,1298.319702 
	C2019.876587,1276.809814 1998.446777,1255.352051 1976.892578,1234.020386 
	C1974.416748,1231.570190 1971.061890,1230.008301 1967.435913,1228.023804 
	C1966.603516,1226.367065 1966.315796,1224.721069 1966.316040,1223.075073 
	C1966.320679,1171.320557 1966.353638,1119.565918 1966.572266,1066.889160 
z"/>
<path fill="#3069EB" opacity="1.000000" stroke="none" 
	d="
M1046.208252,1671.124023 
	C1046.221558,1677.719360 1046.002930,1683.378906 1046.000854,1689.038330 
	C1045.979126,1749.361816 1046.171143,1809.686401 1045.810425,1870.007690 
	C1045.753418,1879.544922 1047.925903,1886.084961 1055.406494,1892.994995 
	C1077.177979,1913.105835 1097.579346,1934.695801 1118.684570,1955.537231 
	C1121.378540,1958.197510 1125.060913,1959.856934 1128.995605,1961.990356 
	C1129.815308,1991.961792 1130.548096,2021.937744 1129.825195,2051.878662 
	C1129.303833,2073.466797 1110.188843,2090.664795 1088.206909,2091.347168 
	C1067.675293,2091.984619 1048.735840,2075.832275 1045.770142,2055.020752 
	C1045.208740,2051.081055 1044.888306,2047.070679 1044.887939,2043.093018 
	C1044.871094,1882.571533 1044.903687,1722.050171 1044.935791,1561.528687 
	C1044.935913,1560.530884 1045.017578,1559.533203 1045.341309,1557.727783 
	C1045.734741,1588.713623 1045.845337,1620.507202 1045.963379,1652.300659 
	C1045.985596,1658.263062 1046.038208,1664.225586 1046.208252,1671.124023 
z"/>
<path fill="#20A5D6" opacity="1.000000" stroke="none" 
	d="
M1347.056641,1293.613770 
	C1346.629883,1288.309326 1343.953613,1284.820679 1340.483765,1281.383911 
	C1319.697754,1260.796387 1299.021484,1240.097168 1278.423462,1219.321533 
	C1275.938965,1216.815552 1274.146973,1213.623413 1271.988037,1210.129028 
	C1273.565186,1209.237061 1275.188354,1208.727295 1276.811401,1208.728027 
	C1325.298950,1208.747314 1373.786377,1208.817261 1423.171875,1209.185791 
	C1426.100830,1212.716309 1427.630127,1216.434570 1430.242554,1219.085327 
	C1450.008301,1239.141602 1469.974487,1259.000610 1489.909180,1278.890137 
	C1493.685059,1282.657349 1497.527344,1286.330078 1498.000244,1292.809937 
	C1492.392090,1293.666870 1486.765747,1293.946655 1481.139404,1293.944458 
	C1436.698120,1293.927612 1392.256958,1293.857178 1347.056641,1293.613770 
z"/>
<path fill="#12C8C8" opacity="1.000000" stroke="none" 
	d="
M1855.867432,675.023926 
	C1855.125244,673.443481 1854.080566,670.945923 1854.076416,668.446716 
	C1853.988647,616.370789 1854.013306,564.294678 1854.052979,512.218567 
	C1854.054321,510.589905 1854.454712,508.961548 1855.202637,506.710999 
	C1855.878784,507.734589 1856.146240,509.380249 1856.145752,511.025848 
	C1856.129272,565.385925 1856.087524,619.745972 1855.867432,675.023926 
z"/>
<path fill="#12C8C8" opacity="1.000000" stroke="none" 
	d="
M1855.854126,729.031128 
	C1855.138794,728.792419 1854.134888,727.632324 1854.141113,726.477539 
	C1854.220581,711.428772 1854.443481,696.380737 1855.156006,680.701538 
	C1855.799683,696.084473 1855.917480,712.098328 1855.854126,729.031128 
z"/>
<path fill="#20A5D6" opacity="1.000000" stroke="none" 
	d="
M1468.564453,1209.144653 
	C1462.267334,1209.592285 1455.151978,1209.738892 1447.344604,1209.663818 
	C1453.683716,1209.242554 1460.714966,1209.043213 1468.564453,1209.144653 
z"/>
<path fill="#20A5D6" opacity="1.000000" stroke="none" 
	d="
M1582.577148,1209.147705 
	C1577.581909,1209.591064 1571.787231,1209.733765 1565.323975,1209.660034 
	C1570.362915,1209.244629 1576.070190,1209.045776 1582.577148,1209.147705 
z"/>
<path fill="#12C8C8" opacity="1.000000" stroke="none" 
	d="
M1855.835693,793.186890 
	C1855.350952,791.624695 1855.046387,789.282471 1855.198853,786.493408 
	C1855.776001,788.166687 1855.895996,790.286682 1855.835693,793.186890 
z"/>
<path fill="#20A5D6" opacity="1.000000" stroke="none" 
	d="
M1678.776123,1747.335938 
	C1678.328125,1747.391968 1677.356567,1747.146118 1676.187988,1746.540527 
	C1676.744873,1746.465088 1677.498657,1746.749634 1678.776123,1747.335938 
z"/>
<path fill="#14C1CB" opacity="1.000000" stroke="none" 
	d="
M2235.292969,983.263184 
	C2234.797852,982.859192 2234.419189,981.948547 2234.051758,980.529358 
	C2234.511719,980.932739 2234.960449,981.844604 2235.292969,983.263184 
z"/>
<path fill="#14C1CB" opacity="1.000000" stroke="none" 
	d="
M2151.586914,982.327576 
	C2151.802246,982.930603 2151.677734,983.930725 2151.242432,985.332153 
	C2151.036621,984.730530 2151.141846,983.727600 2151.586914,982.327576 
z"/>
<path fill="#20A5D6" opacity="1.000000" stroke="none" 
	d="
M2203.625977,1747.653076 
	C2203.089844,1747.900146 2202.184326,1747.819092 2200.876465,1747.534668 
	C2201.401611,1747.329102 2202.329102,1747.327026 2203.625977,1747.653076 
z"/>
<path fill="#20A5D6" opacity="1.000000" stroke="none" 
	d="
M1073.096924,1209.277100 
	C1073.191284,1209.729248 1072.856689,1209.901001 1072.250977,1210.170166 
	C1071.994507,1210.296631 1071.021606,1210.100952 1070.529541,1210.042969 
	C1070.919189,1209.665039 1071.801147,1209.345337 1073.096924,1209.277100 
z"/>
<path fill="#2A86E1" opacity="1.000000" stroke="none" 
	d="
M1496.689209,1556.754395 
	C1496.668823,1556.279663 1497.018433,1555.316284 1497.772217,1554.215576 
	C1497.803833,1554.807495 1497.431396,1555.536499 1496.689209,1556.754395 
z"/>
<path fill="#2A86E1" opacity="1.000000" stroke="none" 
	d="
M1417.101440,2592.728271 
	C1417.556152,2592.706055 1417.738647,2593.055420 1417.798340,2593.765137 
	C1417.313965,2593.885010 1417.031860,2593.543213 1417.101440,2592.728271 
z"/>
<path fill="#14C1CB" opacity="1.000000" stroke="none" 
	d="
M2565.952637,1477.630859 
	C2565.737061,1477.940918 2565.306396,1477.857544 2564.619629,1477.494385 
	C2564.806885,1476.960571 2565.264893,1476.968140 2565.952637,1477.630859 
z"/>
<path fill="#2A86E1" opacity="1.000000" stroke="none" 
	d="
M1496.534180,2592.026367 
	C1496.143799,2591.828613 1496.173706,2591.404297 1496.510254,2590.720215 
	C1497.121338,2590.856934 1497.167236,2591.302979 1496.534180,2592.026367 
z"/>
<path fill="#2889E0" opacity="1.000000" stroke="none" 
	d="
M731.197510,1477.506592 
	C731.415955,1477.686157 730.571899,1477.951416 730.350891,1477.970459 
	C730.262207,1477.574829 730.545227,1477.354004 731.197510,1477.506592 
z"/>
<path fill="#2A86E1" opacity="1.000000" stroke="none" 
	d="
M1416.043457,1554.519165 
	C1416.432251,1554.067017 1416.949829,1554.340088 1417.248535,1555.230957 
	C1416.937744,1555.335571 1416.651855,1555.134155 1416.043457,1554.519165 
z"/>
<path fill="#20A5D6" opacity="1.000000" stroke="none" 
	d="
M1592.044556,1209.636963 
	C1592.285278,1209.890137 1591.703735,1209.899902 1591.703735,1209.899902 
	C1591.703735,1209.899902 1591.130127,1209.803955 1590.857178,1209.717285 
	C1590.910767,1209.155029 1591.317261,1209.072876 1592.044556,1209.636963 
z"/>
<path fill="#20A5D6" opacity="1.000000" stroke="none" 
	d="
M1066.186523,1292.329590 
	C1066.368408,1292.059814 1066.714111,1292.133057 1067.277588,1292.394043 
	C1067.509521,1292.514893 1066.961426,1292.865356 1066.961426,1292.865356 
	C1066.961426,1292.865356 1066.364624,1292.605591 1066.186523,1292.329590 
z"/>
<path fill="#20A5D6" opacity="1.000000" stroke="none" 
	d="
M1596.943115,1292.785400 
	C1597.159546,1292.442261 1597.553711,1292.650513 1597.947510,1293.276611 
	C1598.063477,1293.483276 1597.237427,1293.125854 1596.943115,1292.785400 
z"/>
<path fill="#FDFEFE" opacity="1.000000" stroke="none" 
	d="
M1282.934570,2282.338379 
	C1293.315430,2288.407227 1297.404785,2297.119385 1295.627197,2307.939209 
	C1293.976440,2317.985840 1287.539185,2324.538330 1277.595703,2327.083008 
	C1268.368896,2329.444336 1260.377441,2326.621826 1254.182129,2319.664062 
	C1247.680298,2312.362061 1246.092896,2303.746582 1249.900513,2294.614502 
	C1253.687988,2285.530762 1260.643311,2280.294678 1270.596069,2280.082764 
	C1274.458252,2280.000488 1278.350220,2281.315430 1282.934570,2282.338379 
z"/>
<path fill="#FDFEFE" opacity="1.000000" stroke="none" 
	d="
M2027.733154,734.967834 
	C2024.911499,745.518188 2019.073486,752.102417 2008.859863,754.127380 
	C1995.179932,756.839478 1982.449951,748.075256 1980.279419,734.538208 
	C1978.196777,721.548279 1987.246582,709.196289 2000.408813,707.063965 
	C2013.748291,704.902893 2026.318359,714.543640 2027.865479,728.206970 
	C2028.087646,730.167786 2027.871582,732.178162 2027.733154,734.967834 
z"/>
<path fill="#FDFEFE" opacity="1.000000" stroke="none" 
	d="
M1592.244385,270.840820 
	C1598.735107,266.973206 1604.637207,263.055328 1611.086548,260.540955 
	C1639.633423,249.411453 1672.727661,258.253235 1691.592651,281.631226 
	C1711.205200,305.935272 1712.954834,339.288330 1695.966553,365.573761 
	C1694.521973,367.809021 1692.897583,369.928101 1691.019043,372.727600 
	C1677.671265,386.537415 1662.479248,395.490601 1643.689087,397.236694 
	C1601.932373,401.117004 1567.603638,369.535126 1565.954712,330.389008 
	C1564.948486,306.498779 1573.892822,286.965210 1592.244385,270.840820 
z"/>
<path fill="#FDFEFE" opacity="1.000000" stroke="none" 
	d="
M668.754517,1499.853882 
	C673.610596,1510.821167 676.232788,1521.335571 671.999573,1532.850952 
	C665.470642,1550.611816 647.462585,1561.122681 629.364990,1556.998535 
	C609.765808,1552.532349 598.155457,1536.213013 599.999451,1515.722656 
	C601.593750,1498.006958 617.278259,1483.488770 635.699036,1483.416138 
	C641.186035,1483.394409 646.680359,1485.238403 652.987183,1486.416504 
	C658.618164,1490.890747 663.433289,1495.176025 668.754517,1499.853882 
z"/>
<path fill="#FDFEFE" opacity="1.000000" stroke="none" 
	d="
M2698.458496,1518.270142 
	C2699.579346,1537.491333 2687.465332,1555.166504 2661.568604,1559.386719 
	C2657.267578,1560.087646 2652.170654,1557.144287 2647.691406,1555.283447 
	C2633.537354,1549.403198 2625.249268,1538.742554 2624.111816,1523.404541 
	C2622.398682,1500.310669 2635.401123,1485.238403 2658.136230,1483.173706 
	C2678.745850,1481.302002 2695.597656,1495.629028 2698.458496,1518.270142 
z"/>
</svg>